<svg
  xmlns="http://www.w3.org/2000/svg"
  width="100"
  height="100"
  viewBox="0 0 100 100"
>
  <path
    d="M92.846,24.663c-1.231-1.231-3.222-1.231-4.453,0L73.052,37.181L67.3,32.465L77.562,15.847H56.31
    c-2.21,0-4.011,1.801-4.011,4.011v13.755c-4.016,0-7.275,3.259-7.275,7.275c0,1.445,0.42,2.806,1.145,3.965l-5.45,5.449
    c-2.938-1.738-6.318-2.75-9.941-2.75c-4.527,0-8.657,1.395-12.08,3.764L8.618,40.349c-4.209-4.209-4.209-11.046,0-15.254
    c3.94-3.94,8.283-3.905,12.086,0l6.932,6.932L31.045,11.779c-2.34-2.34-5.423-3.623-8.695-3.623c-3.271,0-6.354,1.283-8.694,3.623
    L1.194,22.387c-3.227,3.226-3.227,8.463,0,11.688c3.227,3.227,8.464,3.226,11.689,0l11.158-11.159l6.931,6.93
    c4.425,4.426,8.555,3.764,12.081,3.764c3.623,0,7.003-1.012,9.941-2.75l5.45,5.449c-1.125,1.125-2.625,1.749-4.236,1.749H76.35
    l-5.753,14.716L92.846,24.663z M13.818,30.337c-2.212-2.212-2.212-5.804,0-8.015c1.006-1.006,2.338-1.568,3.758-1.568
    c1.419,0,2.75,0.562,3.758,1.568c2.212,2.212,2.212,5.804,0,8.016c-1.006,1.006-2.338,1.568-3.758,1.568
    C16.155,31.905,14.824,31.343,13.818,30.337z M32.754,7.614c0.164-0.164,0.359-0.278,0.578-0.365
    c0.075-0.023,0.151-0.042,0.227-0.062c0.024-0.006,0.049-0.011,0.073-0.018c0.197-0.049,0.398-0.083,0.602-0.083
    c0.234,0,0.469,0.031,0.699,0.084c0.026,0.007,0.051,0.012,0.077,0.019c0.076,0.02,0.151,0.04,0.226,0.063
    c0.218,0.086,0.413,0.201,0.577,0.365c0.318,0.318,0.499,0.741,0.499,1.193c0,0.452-0.181,0.875-0.499,1.193
    c-0.06,0.06-0.124,0.112-0.185,0.171l-7.987,7.986l-2.382-2.381L32.754,7.614z M10.667,24.663c-0.231-0.23-0.357-0.534-0.357-0.857
    c0-0.322,0.126-0.626,0.357-0.857c0.231-0.23,0.534-0.356,0.857-0.356s0.626,0.126,0.857,0.356c0.231,0.231,0.357,0.535,0.357,0.857
    c0,0.323-0.126,0.626-0.357,0.857c-0.23,0.23-0.534,0.356-0.857,0.356S10.898,24.893,10.667,24.663z M41.818,39.919
    l-6.931-6.931l6.931-6.932l6.932,6.932L41.818,39.919z M50.889,36.184c-2.893,0-5.574-1.126-7.607-3.159
    c-2.042-2.043-3.169-4.722-3.169-7.607c0-2.893,1.127-5.573,3.169-7.615c2.033-2.034,4.714-3.16,7.607-3.16
    c2.893,0,5.573,1.126,7.607,3.16c2.042,2.042,3.169,4.722,3.169,7.615c0,2.885-1.127,5.564-3.169,7.607
    C56.463,35.058,53.783,36.184,50.889,36.184z M63.748,29.718l-6.931,6.931l-6.932-6.931l6.932-6.932L63.748,29.718z
     M76.351,38.725H60.259l5.753-14.715L76.351,38.725z M82.93,24.663l-10.185,10.185L62.56,24.663H82.93z M10.667,25.663
    c-0.387,0-0.75,0.15-1.021,0.421c-0.272,0.272-0.421,0.634-0.421,1.021s0.149,0.75,0.421,1.021
    c0.271,0.271,0.634,0.421,1.021,0.421s0.75-0.15,1.021-0.421c0.272-0.271,0.421-0.634,0.421-1.021s-0.149-0.75-0.421-1.021
    C11.417,25.813,11.054,25.663,10.667,25.663z M71.898,36.184c-1.811,0-3.479-0.704-4.754-1.979
    c-1.276-1.276-1.979-2.943-1.979-4.753s0.703-3.478,1.979-4.754c1.275-1.275,2.943-1.979,4.754-1.979
    c1.812,0,3.479,0.704,4.753,1.979c1.276,1.276,1.979,2.943,1.979,4.754s-0.703,3.477-1.979,4.753
    C75.376,35.48,73.709,36.184,71.898,36.184z"
  />
</svg>
